<svg xmlns="http://www.w3.org/2000/svg" xmlns:xlink="http://www.w3.org/1999/xlink" version="1.1" data-diagram-type="CLASS" style="width:1091px;height:365px;background:#17130D;" width="1091px" height="365px" viewBox="0 0 1091 365" zoomAndPan="magnify" preserveAspectRatio="none" contentStyleType="text/css"><?plantuml 1.2026.8?><defs/><g font-family="sans-serif" lengthAdjust="spacing"><rect x="0" y="0" width="1091" height="365" fill="#17130D" style="stroke:none;"/><g class="title" data-source-line="70"><text x="336.133" y="23.535" fill="#F4ECDF" font-size="14" textLength="412.385" font-weight="700">KubeQuest - tutor communication (numbered messages)</text></g><g class="entity" data-qualified-name="UI" id="ent0001" data-source-line="71"><rect x="404.5" y="49.488" width="116.901" height="36.488" fill="#2D2417" style="stroke:#F3BD62;stroke-width:0.5;" rx="2.5" ry="2.5"/><text x="411.5" y="65.023" fill="#F4ECDF" font-size="14" textLength="102.901">Owner browser</text><line x1="405.5" y1="69.977" x2="520.401" y2="69.977" style="stroke:#F3BD62;stroke-width:0.5;"/></g><g class="entity" data-qualified-name="API" id="ent0002" data-source-line="72"><rect x="394.5" y="141.488" width="136.521" height="36.488" fill="#2D2417" style="stroke:#F3BD62;stroke-width:0.5;" rx="2.5" ry="2.5"/><text x="401.5" y="157.023" fill="#F4ECDF" font-size="14" textLength="122.521">Fastify tutor route</text><line x1="395.5" y1="161.977" x2="530.021" y2="161.977" style="stroke:#F3BD62;stroke-width:0.5;"/></g><g class="entity" data-qualified-name="Content" id="ent0003" data-source-line="73"><rect x="6" y="233.488" width="190.148" height="36.488" fill="#2D2417" style="stroke:#F3BD62;stroke-width:0.5;" rx="2.5" ry="2.5"/><text x="13" y="249.023" fill="#F4ECDF" font-size="14" textLength="176.148">Reviewed mission content</text><line x1="7" y1="253.977" x2="195.148" y2="253.977" style="stroke:#F3BD62;stroke-width:0.5;"/></g><g class="entity" data-qualified-name="Sanitize" id="ent0004" data-source-line="74"><rect x="245.5" y="233.488" width="164.671" height="36.488" fill="#2D2417" style="stroke:#F3BD62;stroke-width:0.5;" rx="2.5" ry="2.5"/><text x="252.5" y="249.023" fill="#F4ECDF" font-size="14" textLength="150.671">Lab evidence sanitizer</text><line x1="246.5" y1="253.977" x2="409.171" y2="253.977" style="stroke:#F3BD62;stroke-width:0.5;"/></g><g class="entity" data-qualified-name="AI" id="ent0005" data-source-line="75"><rect x="684" y="233.488" width="146.248" height="36.488" fill="#2D2417" style="stroke:#F3BD62;stroke-width:0.5;" rx="2.5" ry="2.5"/><text x="691" y="249.023" fill="#F4ECDF" font-size="14" textLength="132.248">Ollama qwen2.5:7b</text><line x1="685" y1="253.977" x2="829.248" y2="253.977" style="stroke:#F3BD62;stroke-width:0.5;"/></g><g class="entity" data-qualified-name="GMN13" id="ent0014" data-source-line="84"><path d="M575,306.488 L575,349.465 A0,0 0 0 0 575,349.465 L938.938,349.465 A0,0 0 0 0 938.938,349.465 L938.938,316.488 L928.938,306.488 L761,306.488 L757,269.767 L753,306.488 L575,306.488 A0,0 0 0 0 575,306.488" style="stroke:#BB9658;stroke-width:0.5;" fill="#3B2E1A"/><path d="M928.938,306.488 L928.938,316.488 L938.938,316.488 L928.938,306.488" style="stroke:#BB9658;stroke-width:0.5;" fill="#3B2E1A"/><text x="581" y="325.023" fill="#F4ECDF" font-size="14" textLength="330.839">No tools, shell, credentials, or grading authority.</text><text x="581" y="341.512" fill="#F4ECDF" font-size="14" textLength="342.938">Model output is guidance, not validation evidence.</text></g><g class="link" data-entity-1="ent0001" data-entity-2="ent0002" id="lnk6" data-link-type="dependency"><polygon points="394.345,145.05,386.982,138.509,389.581,143.533,384.556,146.132,394.345,145.05" fill="#F3BD62" style="stroke:#F3BD62;stroke-width:1;stroke-linejoin:miter;stroke-miterlimit:10;"/><path d="M404.423,75.299 C387.326,80.322 370.448,88.903 360,103.488 C345.893,123.181 362.635,134.957 389.581,143.533" style="stroke:#F3BD62;stroke-width:1;" fill="none"/><text x="362" y="119.023" fill="#F4ECDF" font-size="14" textLength="181.125">1: ask(question, sessionId)</text></g><g class="link" data-entity-1="ent0002" data-entity-2="ent0002" id="lnk7" data-link-type="dependency"><polygon points="531.525,167.393,540.91,170.379,536.495,166.843,540.031,162.428,531.525,167.393" fill="#F3BD62" style="stroke:#F3BD62;stroke-width:1;stroke-linejoin:miter;stroke-miterlimit:10;"/><path d="M531.525,151.584 C542.213,152.766 549.5,155.4 549.5,159.488 C549.5,163.576 547.183,165.661 536.495,166.843" style="stroke:#F3BD62;stroke-width:1;" fill="none"/><text x="551.5" y="165.023" fill="#F4ECDF" font-size="14" textLength="319.949">1.1: authorize, check mode, rate and busy lock</text></g><g class="link" data-entity-1="ent0002" data-entity-2="ent0003" id="lnk8" data-link-type="dependency"><polygon points="100.52,233.434,104.979,224.652,100.778,228.44,96.99,224.24,100.52,233.434" fill="#F3BD62" style="stroke:#F3BD62;stroke-width:1;stroke-linejoin:miter;stroke-miterlimit:10;"/><path d="M394.275,163.215 C298.886,167.626 135.677,177.683 115,195.488 C104.248,204.746 101.42,215.998 100.778,228.44" style="stroke:#F3BD62;stroke-width:1;" fill="none"/><text x="117" y="211.023" fill="#F4ECDF" font-size="14" textLength="200.922">1.2: select bounded guidance</text></g><g class="link" data-entity-1="ent0002" data-entity-2="ent0004" id="lnk9" data-link-type="dependency"><polygon points="323.337,233.316,325.683,223.751,322.453,228.395,317.809,225.165,323.337,233.316" fill="#F3BD62" style="stroke:#F3BD62;stroke-width:1;stroke-linejoin:miter;stroke-miterlimit:10;"/><path d="M394.344,170.609 C365.946,176.315 337.624,184.529 329,195.488 C320.731,205.995 320.324,216.538 322.453,228.395" style="stroke:#F3BD62;stroke-width:1;" fill="none"/><text x="331" y="211.023" fill="#F4ECDF" font-size="14" textLength="244.692">1.3: request safe resource summary</text></g><g class="link" data-entity-1="ent0002" data-entity-2="ent0005" id="lnk10" data-link-type="dependency"><polygon points="683.705,241.893,675.605,236.29,678.792,240.964,674.118,244.151,683.705,241.893" fill="#F3BD62" style="stroke:#F3BD62;stroke-width:1;stroke-linejoin:miter;stroke-miterlimit:10;"/><path d="M531.522,176.448 C546.989,181.42 562.972,187.7 577,195.488 C588.844,202.064 587.907,209.383 600,215.488 C625.801,228.515 651.49,235.8 678.792,240.964" style="stroke:#F3BD62;stroke-width:1;" fill="none"/><text x="602" y="211.023" fill="#F4ECDF" font-size="14" textLength="290.801">1.4: bounded prompt; one active inference</text></g><g class="link" data-entity-1="ent0005" data-entity-2="ent0002" id="lnk11" data-link-type="dependency"><polygon points="531.63,161.074,540.57,165.206,536.63,161.147,540.688,157.207,531.63,161.074" fill="#F3BD62" style="stroke:#F3BD62;stroke-width:1;stroke-linejoin:miter;stroke-miterlimit:10;"/><path d="M830.405,243.17 C874.761,235.943 918.411,221.962 894,195.488 C869.986,169.445 652.083,162.853 536.63,161.147" style="stroke:#F3BD62;stroke-width:1;" fill="none"/><text x="902" y="211.023" fill="#F4ECDF" font-size="14" textLength="181.651">1.5: suggestion or timeout</text></g><g class="link" data-entity-1="ent0002" data-entity-2="ent0001" id="lnk12" data-link-type="dependency"><polygon points="521.744,83.401,527.799,91.168,526.155,85.756,531.567,84.111,521.744,83.401" fill="#F3BD62" style="stroke:#F3BD62;stroke-width:1;stroke-linejoin:miter;stroke-miterlimit:10;"/><path d="M520.904,141.426 C540.818,132.373 555.722,119.723 545,103.488 C539.285,94.835 535.355,90.668 526.155,85.756" style="stroke:#F3BD62;stroke-width:1;" fill="none"/><text x="551" y="119.023" fill="#F4ECDF" font-size="14" textLength="213.65">1.6: answer / authored fallback</text></g></g></svg>