<svg xmlns="http://www.w3.org/2000/svg" xmlns:xlink="http://www.w3.org/1999/xlink" version="1.1" data-diagram-type="DESCRIPTION" style="width:2058px;height:650px;background:#17130D;" width="2058px" height="650px" viewBox="0 0 2058 650" zoomAndPan="magnify" preserveAspectRatio="none" contentStyleType="text/css"><?plantuml 1.2026.8?><defs/><g font-family="sans-serif" lengthAdjust="spacing"><rect x="0" y="0" width="2058" height="650" fill="#17130D" style="stroke:none;"/><g class="title" data-source-line="70"><text x="902.228" y="23.535" fill="#F4ECDF" font-size="14" textLength="247.044" font-weight="700">KubeQuest - runtime components</text></g><!--cluster Browser--><g class="cluster" data-qualified-name="Browser" id="ent0001" data-source-line="71"><path d="M16.5,41.488 L76.187,41.488 A3.75,3.75 0 0 1 78.687,43.988 L85.687,63.977 L487.5,63.977 A2.5,2.5 0 0 1 490,66.477 L490,278.988 A2.5,2.5 0 0 1 487.5,281.488 L16.5,281.488 A2.5,2.5 0 0 1 14,278.988 L14,43.988 A2.5,2.5 0 0 1 16.5,41.488" style="stroke:#F3BD62;stroke-width:1.5;" fill="#2D2417"/><line x1="14" y1="63.977" x2="85.687" y2="63.977" style="stroke:#F3BD62;stroke-width:1.5;"/><text x="18" y="57.023" fill="#F4ECDF" font-size="14" textLength="58.687" font-weight="700">Browser</text></g><!--cluster Portal service--><g class="cluster" data-qualified-name="Portal service" id="ent0005" data-source-line="76"><path d="M728.5,176.488 L827.459,176.488 A3.75,3.75 0 0 1 829.959,178.988 L836.959,198.977 L1627.5,198.977 A2.5,2.5 0 0 1 1630,201.477 L1630,469.988 A2.5,2.5 0 0 1 1627.5,472.488 L728.5,472.488 A2.5,2.5 0 0 1 726,469.988 L726,178.988 A2.5,2.5 0 0 1 728.5,176.488" style="stroke:#F3BD62;stroke-width:1.5;" fill="#2D2417"/><line x1="726" y1="198.977" x2="836.959" y2="198.977" style="stroke:#F3BD62;stroke-width:1.5;"/><text x="730" y="192.023" fill="#F4ECDF" font-size="14" textLength="97.959" font-weight="700">Portal service</text></g><!--cluster Disposable KVM guest--><g class="cluster" data-qualified-name="Disposable KVM guest" id="ent0014" data-source-line="86"><polygon points="690,518.488,700,508.488,948,508.488,948,616.488,938,626.488,690,626.488,690,518.488" fill="#2D2417" style="stroke:#F3BD62;stroke-width:1;stroke-linejoin:miter;stroke-miterlimit:10;"/><line x1="938" y1="518.488" x2="948" y2="508.488" style="stroke:#F3BD62;stroke-width:1;"/><line x1="690" y1="518.488" x2="938" y2="518.488" style="stroke:#F3BD62;stroke-width:1;"/><line x1="938" y1="518.488" x2="938" y2="626.488" style="stroke:#F3BD62;stroke-width:1;"/><text x="734.076" y="535.023" fill="#F4ECDF" font-size="14" textLength="161.848" font-weight="700">Disposable KVM guest</text></g><!--entity Wiki--><g class="entity" data-qualified-name="Wiki" id="ent0012" data-source-line="84"><rect x="506.5" y="219.488" width="203.235" height="46.488" fill="#2D2417" style="stroke:#F3BD62;stroke-width:0.5;" rx="2.5" ry="2.5"/><rect x="689.735" y="224.488" width="15" height="10" fill="#2D2417" style="stroke:#F3BD62;stroke-width:0.5;"/><rect x="687.735" y="226.488" width="4" height="2" fill="#2D2417" style="stroke:#F3BD62;stroke-width:0.5;"/><rect x="687.735" y="230.488" width="4" height="2" fill="#2D2417" style="stroke:#F3BD62;stroke-width:0.5;"/><text x="521.5" y="253.023" fill="#F4ECDF" font-size="14" textLength="163.235">GitHub Pages static wiki</text></g><!--entity Google--><g class="entity" data-qualified-name="Google" id="ent0013" data-source-line="85"><rect x="1646.5" y="410.488" width="143.489" height="46.488" fill="#2D2417" style="stroke:#F3BD62;stroke-width:0.5;" rx="2.5" ry="2.5"/><rect x="1769.989" y="415.488" width="15" height="10" fill="#2D2417" style="stroke:#F3BD62;stroke-width:0.5;"/><rect x="1767.989" y="417.488" width="4" height="2" fill="#2D2417" style="stroke:#F3BD62;stroke-width:0.5;"/><rect x="1767.989" y="421.488" width="4" height="2" fill="#2D2417" style="stroke:#F3BD62;stroke-width:0.5;"/><text x="1661.5" y="444.023" fill="#F4ECDF" font-size="14" textLength="103.489">Google Identity</text></g><!--entity Ollama--><g class="entity" data-qualified-name="Ollama" id="ent0016" data-source-line="89"><rect x="1807.5" y="410.488" width="242.508" height="46.488" fill="#2D2417" style="stroke:#F3BD62;stroke-width:0.5;" rx="2.5" ry="2.5"/><rect x="2030.008" y="415.488" width="15" height="10" fill="#2D2417" style="stroke:#F3BD62;stroke-width:0.5;"/><rect x="2028.008" y="417.488" width="4" height="2" fill="#2D2417" style="stroke:#F3BD62;stroke-width:0.5;"/><rect x="2028.008" y="421.488" width="4" height="2" fill="#2D2417" style="stroke:#F3BD62;stroke-width:0.5;"/><text x="1822.5" y="444.023" fill="#F4ECDF" font-size="14" textLength="202.508">Existing Ollama / qwen2.5:7b</text></g><!--entity UI--><g class="entity" data-qualified-name="Browser.UI" id="ent0002" data-source-line="72"><rect x="30" y="84.488" width="207.638" height="46.488" fill="#2D2417" style="stroke:#F3BD62;stroke-width:0.5;" rx="2.5" ry="2.5"/><rect x="217.638" y="89.488" width="15" height="10" fill="#2D2417" style="stroke:#F3BD62;stroke-width:0.5;"/><rect x="215.638" y="91.488" width="4" height="2" fill="#2D2417" style="stroke:#F3BD62;stroke-width:0.5;"/><rect x="215.638" y="95.488" width="4" height="2" fill="#2D2417" style="stroke:#F3BD62;stroke-width:0.5;"/><text x="45" y="118.023" fill="#F4ECDF" font-size="14" textLength="167.638">React router and lessons</text></g><!--entity Sim--><g class="entity" data-qualified-name="Browser.Sim" id="ent0003" data-source-line="73"><rect x="48.5" y="219.488" width="171.332" height="46.488" fill="#2D2417" style="stroke:#F3BD62;stroke-width:0.5;" rx="2.5" ry="2.5"/><rect x="199.832" y="224.488" width="15" height="10" fill="#2D2417" style="stroke:#F3BD62;stroke-width:0.5;"/><rect x="197.832" y="226.488" width="4" height="2" fill="#2D2417" style="stroke:#F3BD62;stroke-width:0.5;"/><rect x="197.832" y="230.488" width="4" height="2" fill="#2D2417" style="stroke:#F3BD62;stroke-width:0.5;"/><text x="63.5" y="253.023" fill="#F4ECDF" font-size="14" textLength="131.332">Simulation controls</text></g><!--entity Editor--><g class="entity" data-qualified-name="Browser.Editor" id="ent0004" data-source-line="74"><rect x="256.5" y="84.488" width="216.613" height="46.488" fill="#2D2417" style="stroke:#F3BD62;stroke-width:0.5;" rx="2.5" ry="2.5"/><rect x="453.113" y="89.488" width="15" height="10" fill="#2D2417" style="stroke:#F3BD62;stroke-width:0.5;"/><rect x="451.113" y="91.488" width="4" height="2" fill="#2D2417" style="stroke:#F3BD62;stroke-width:0.5;"/><rect x="451.113" y="95.488" width="4" height="2" fill="#2D2417" style="stroke:#F3BD62;stroke-width:0.5;"/><text x="271.5" y="118.023" fill="#F4ECDF" font-size="14" textLength="176.613">Terminal and YAML editor</text></g><!--entity API--><g class="entity" data-qualified-name="Portal service.API" id="ent0006" data-source-line="77"><rect x="818" y="219.488" width="131.738" height="46.488" fill="#2D2417" style="stroke:#F3BD62;stroke-width:0.5;" rx="2.5" ry="2.5"/><rect x="929.738" y="224.488" width="15" height="10" fill="#2D2417" style="stroke:#F3BD62;stroke-width:0.5;"/><rect x="927.738" y="226.488" width="4" height="2" fill="#2D2417" style="stroke:#F3BD62;stroke-width:0.5;"/><rect x="927.738" y="230.488" width="4" height="2" fill="#2D2417" style="stroke:#F3BD62;stroke-width:0.5;"/><text x="833" y="253.023" fill="#F4ECDF" font-size="14" textLength="91.738">Fastify routes</text></g><!--entity Auth--><g class="entity" data-qualified-name="Portal service.Auth" id="ent0007" data-source-line="78"><rect x="954" y="308.488" width="282.136" height="46.488" fill="#2D2417" style="stroke:#F3BD62;stroke-width:0.5;" rx="2.5" ry="2.5"/><rect x="1216.136" y="313.488" width="15" height="10" fill="#2D2417" style="stroke:#F3BD62;stroke-width:0.5;"/><rect x="1214.136" y="315.488" width="4" height="2" fill="#2D2417" style="stroke:#F3BD62;stroke-width:0.5;"/><rect x="1214.136" y="319.488" width="4" height="2" fill="#2D2417" style="stroke:#F3BD62;stroke-width:0.5;"/><text x="969" y="342.023" fill="#F4ECDF" font-size="14" textLength="242.136">Google OAuth / session verification</text></g><!--entity Lab--><g class="entity" data-qualified-name="Portal service.Lab" id="ent0008" data-source-line="79"><rect x="752" y="410.488" width="134.083" height="46.488" fill="#2D2417" style="stroke:#F3BD62;stroke-width:0.5;" rx="2.5" ry="2.5"/><rect x="866.083" y="415.488" width="15" height="10" fill="#2D2417" style="stroke:#F3BD62;stroke-width:0.5;"/><rect x="864.083" y="417.488" width="4" height="2" fill="#2D2417" style="stroke:#F3BD62;stroke-width:0.5;"/><rect x="864.083" y="421.488" width="4" height="2" fill="#2D2417" style="stroke:#F3BD62;stroke-width:0.5;"/><text x="767" y="444.023" fill="#F4ECDF" font-size="14" textLength="94.083">Lab controller</text></g><!--entity Grade--><g class="entity" data-qualified-name="Portal service.Grade" id="ent0009" data-source-line="80"><rect x="762" y="308.488" width="173.957" height="46.488" fill="#2D2417" style="stroke:#F3BD62;stroke-width:0.5;" rx="2.5" ry="2.5"/><rect x="915.957" y="313.488" width="15" height="10" fill="#2D2417" style="stroke:#F3BD62;stroke-width:0.5;"/><rect x="913.957" y="315.488" width="4" height="2" fill="#2D2417" style="stroke:#F3BD62;stroke-width:0.5;"/><rect x="913.957" y="319.488" width="4" height="2" fill="#2D2417" style="stroke:#F3BD62;stroke-width:0.5;"/><text x="777" y="342.023" fill="#F4ECDF" font-size="14" textLength="133.957">Authored validators</text></g><!--entity Tutor--><g class="entity" data-qualified-name="Portal service.Tutor" id="ent0010" data-source-line="81"><rect x="1254" y="308.488" width="277.549" height="46.488" fill="#2D2417" style="stroke:#F3BD62;stroke-width:0.5;" rx="2.5" ry="2.5"/><rect x="1511.549" y="313.488" width="15" height="10" fill="#2D2417" style="stroke:#F3BD62;stroke-width:0.5;"/><rect x="1509.549" y="315.488" width="4" height="2" fill="#2D2417" style="stroke:#F3BD62;stroke-width:0.5;"/><rect x="1509.549" y="319.488" width="4" height="2" fill="#2D2417" style="stroke:#F3BD62;stroke-width:0.5;"/><text x="1269" y="342.023" fill="#F4ECDF" font-size="14" textLength="237.549">Tutor guard and evidence sanitizer</text></g><!--entity DB--><g class="entity" data-qualified-name="Portal service.DB" id="ent0011" data-source-line="82"><path d="M1550.5,318.988 C1550.5,308.988 1581.982,308.988 1581.982,308.988 C1581.982,308.988 1613.464,308.988 1613.464,318.988 L1613.464,344.477 C1613.464,354.477 1581.982,354.477 1581.982,354.477 C1581.982,354.477 1550.5,354.477 1550.5,344.477 L1550.5,318.988" style="stroke:#F3BD62;stroke-width:0.5;" fill="#2D2417"/><path d="M1550.5,318.988 C1550.5,328.988 1581.982,328.988 1581.982,328.988 C1581.982,328.988 1613.464,328.988 1613.464,318.988" style="stroke:#F3BD62;stroke-width:0.5;" fill="none"/><text x="1560.5" y="346.523" fill="#F4ECDF" font-size="14" textLength="42.964">SQLite</text></g><!--entity K3s--><g class="entity" data-qualified-name="Disposable KVM guest.K3s" id="ent0015" data-source-line="87"><rect x="710.5" y="560.488" width="217.263" height="46.488" fill="#2D2417" style="stroke:#F3BD62;stroke-width:0.5;" rx="2.5" ry="2.5"/><rect x="907.763" y="565.488" width="15" height="10" fill="#2D2417" style="stroke:#F3BD62;stroke-width:0.5;"/><rect x="905.763" y="567.488" width="4" height="2" fill="#2D2417" style="stroke:#F3BD62;stroke-width:0.5;"/><rect x="905.763" y="571.488" width="4" height="2" fill="#2D2417" style="stroke:#F3BD62;stroke-width:0.5;"/><text x="725.5" y="594.023" fill="#F4ECDF" font-size="14" textLength="177.263">K3s and quest namespace</text></g><g class="link" data-entity-1="ent0002" data-entity-2="ent0006" id="lnk17" data-link-type="dependency"><polygon points="845.269,219.449,839.243,211.659,840.868,217.078,835.449,218.703,845.269,219.449" fill="#F3BD62" style="stroke:#F3BD62;stroke-width:1;stroke-linejoin:miter;stroke-miterlimit:10;"/><path d="M238.27,129.378 C241.207,129.777 244.122,130.149 247,130.488 C340.437,141.509 578.313,127.383 670,148.488 C734.348,163.3 799.109,194.582 840.868,217.078" style="stroke:#F3BD62;stroke-width:1;" fill="none"/><text x="734" y="164.023" fill="#F4ECDF" font-size="14" textLength="43.271">HTTPS</text></g><g class="link" data-entity-1="ent0002" data-entity-2="ent0003" id="lnk18" data-link-type="dependency"><polygon points="134,219.154,138,210.154,134,214.154,130,210.154,134,219.154" fill="#F3BD62" style="stroke:#F3BD62;stroke-width:1;stroke-linejoin:miter;stroke-miterlimit:10;"/><path d="M134,130.749 C134,155.301 134,189.574 134,214.154" style="stroke:#F3BD62;stroke-width:1;" fill="none"/><text x="136" y="164.023" fill="#F4ECDF" font-size="14" textLength="69.166">local state</text></g><g class="link" data-entity-1="ent0002" data-entity-2="ent0012" id="lnk19" data-link-type="dependency"><polygon points="576,219.37,570.612,211.126,571.801,216.657,566.27,217.845,576,219.37" fill="#F3BD62" style="stroke:#F3BD62;stroke-width:1;stroke-linejoin:miter;stroke-miterlimit:10;"/><path d="M238.052,128.779 C241.067,129.357 244.055,129.927 247,130.488 C356.693,151.38 389.149,138.077 494,176.488 C523.308,187.225 549.696,202.372 571.801,216.657" style="stroke:#F3BD62;stroke-width:1;stroke-dasharray:7,7;" fill="none"/><text x="473" y="164.023" fill="#F4ECDF" font-size="14" textLength="191.81">external documentation link</text></g><g class="link" data-entity-1="ent0004" data-entity-2="ent0006" id="lnk20" data-link-type="dependency"><polygon points="885.536,219.358,889.605,210.388,885.574,214.358,881.605,210.327,885.536,219.358" fill="#F3BD62" style="stroke:#F3BD62;stroke-width:1;stroke-linejoin:miter;stroke-miterlimit:10;"/><path d="M473.563,110.543 C610.934,114.158 833.224,123.784 862,148.488 C882.142,165.78 885.738,192.785 885.574,214.358" style="stroke:#F3BD62;stroke-width:1;" fill="none"/><text x="878" y="164.023" fill="#F4ECDF" font-size="14" textLength="128.639">API and WebSocket</text></g><g class="link" data-entity-1="ent0006" data-entity-2="ent0007" id="lnk21" data-link-type="dependency"><polygon points="1041.54,308.446,1034.744,301.317,1036.918,306.54,1031.695,308.713,1041.54,308.446" fill="#F3BD62" style="stroke:#F3BD62;stroke-width:1;stroke-linejoin:miter;stroke-miterlimit:10;"/><path d="M937.517,265.555 C969.383,278.694 1005.062,293.405 1036.918,306.54" style="stroke:#F3BD62;stroke-width:1;" fill="none"/></g><g class="link" data-entity-1="ent0007" data-entity-2="ent0013" id="lnk22" data-link-type="dependency"><polygon points="1646.183,413.108,1638.289,407.218,1641.307,412.003,1636.522,415.021,1646.183,413.108" fill="#F3BD62" style="stroke:#F3BD62;stroke-width:1;stroke-linejoin:miter;stroke-miterlimit:10;"/><path d="M1236.32,353.226 C1239.239,353.651 1242.135,354.072 1245,354.488 C1417.856,379.606 1462.795,375.861 1634,410.488 C1637.99,411.295 1637.195,411.072 1641.307,412.003" style="stroke:#F3BD62;stroke-width:1;" fill="none"/><text x="1531" y="388.023" fill="#F4ECDF" font-size="14" textLength="92.36">OAuth / JWKS</text></g><g class="link" data-entity-1="ent0006" data-entity-2="ent0008" id="lnk23" data-link-type="dependency"><polygon points="792.353,410.043,788.574,400.948,788.724,406.603,783.069,406.753,792.353,410.043" fill="#F3BD62" style="stroke:#F3BD62;stroke-width:1;stroke-linejoin:miter;stroke-miterlimit:10;"/><path d="M817.763,260.178 C793.024,269.976 767.451,285.186 753,308.488 C731.664,342.892 762.121,381.377 788.724,406.603" style="stroke:#F3BD62;stroke-width:1;" fill="none"/></g><g class="link" data-entity-1="ent0006" data-entity-2="ent0011" id="lnk24" data-link-type="dependency"><polygon points="1550.292,311.942,1543.616,304.701,1545.702,309.959,1540.444,312.045,1550.292,311.942" fill="#F3BD62" style="stroke:#F3BD62;stroke-width:1;stroke-linejoin:miter;stroke-miterlimit:10;"/><path d="M950.169,246.737 C1094.146,254.34 1431.693,275.208 1541,308.488 C1544.091,309.429 1542.627,308.631 1545.702,309.959" style="stroke:#F3BD62;stroke-width:1;" fill="none"/></g><g class="link" data-entity-1="ent0008" data-entity-2="ent0015" id="lnk25" data-link-type="dependency"><polygon points="819,560.18,823,551.18,819,555.18,815,551.18,819,560.18" fill="#F3BD62" style="stroke:#F3BD62;stroke-width:1;stroke-linejoin:miter;stroke-miterlimit:10;"/><path d="M819,456.645 C819,484.546 819,527.207 819,555.18" style="stroke:#F3BD62;stroke-width:1;" fill="none"/><text x="821" y="496.023" fill="#F4ECDF" font-size="14" textLength="76.645">pinned SSH</text></g><g class="link" data-entity-1="ent0009" data-entity-2="ent0008" id="lnk26" data-link-type="dependency"><polygon points="825.639,410.357,832.057,402.886,827.076,405.568,824.394,400.587,825.639,410.357" fill="#F3BD62" style="stroke:#F3BD62;stroke-width:1;stroke-linejoin:miter;stroke-miterlimit:10;"/><path d="M842.342,354.682 C837.371,371.253 832.043,389.011 827.076,405.568" style="stroke:#F3BD62;stroke-width:1;" fill="none"/><text x="839" y="388.023" fill="#F4ECDF" font-size="14" textLength="183.846">configuration and behavior</text></g><g class="link" data-entity-1="ent0006" data-entity-2="ent0009" id="lnk27" data-link-type="dependency"><polygon points="857.862,308.461,864.932,301.604,859.728,303.822,857.51,298.618,857.862,308.461" fill="#F3BD62" style="stroke:#F3BD62;stroke-width:1;stroke-linejoin:miter;stroke-miterlimit:10;"/><path d="M874.987,265.893 C869.72,278.983 864.968,290.797 859.728,303.822" style="stroke:#F3BD62;stroke-width:1;" fill="none"/></g><g class="link" data-entity-1="ent0006" data-entity-2="ent0010" id="lnk28" data-link-type="dependency"><polygon points="1264.24,308.48,1256.043,303.021,1259.312,307.638,1254.695,310.907,1264.24,308.48" fill="#F3BD62" style="stroke:#F3BD62;stroke-width:1;stroke-linejoin:miter;stroke-miterlimit:10;"/><path d="M950.021,254.773 C1029.306,268.324 1159.185,290.524 1259.312,307.638" style="stroke:#F3BD62;stroke-width:1;" fill="none"/></g><g class="link" data-entity-1="ent0010" data-entity-2="ent0016" id="lnk29" data-link-type="dependency"><polygon points="1897.095,410.431,1891.63,402.237,1892.87,407.756,1887.351,408.997,1897.095,410.431" fill="#F3BD62" style="stroke:#F3BD62;stroke-width:1;stroke-linejoin:miter;stroke-miterlimit:10;"/><path d="M1532.147,353.399 C1535.462,353.779 1538.75,354.143 1542,354.488 C1664.239,367.477 1699.872,338.477 1818,372.488 C1846.419,380.671 1871.508,394.234 1892.87,407.756" style="stroke:#F3BD62;stroke-width:1;" fill="none"/><text x="1867" y="388.023" fill="#F4ECDF" font-size="14" textLength="151.867">bounded local request</text></g></g></svg>