<svg xmlns="http://www.w3.org/2000/svg" xmlns:xlink="http://www.w3.org/1999/xlink" version="1.1" data-diagram-type="DESCRIPTION" style="width:1461px;height:1088px;background:#17130D;" width="1461px" height="1088px" viewBox="0 0 1461 1088" zoomAndPan="magnify" preserveAspectRatio="none" contentStyleType="text/css"><?plantuml 1.2026.8?><defs/><g font-family="sans-serif" lengthAdjust="spacing"><rect x="0" y="0" width="1461" height="1088" fill="#17130D" style="stroke:none;"/><g class="title" data-source-line="70"><text x="549.259" y="23.535" fill="#F4ECDF" font-size="14" textLength="355.482" font-weight="700">KubeQuest - production and delivery boundaries</text></g><!--cluster Cloudflare--><g class="cluster" data-qualified-name="Cloudflare" id="ent0002" data-source-line="72"><path d="M552.617,147.636 C562.637,129.472 574.402,130.776 586.247,145.785 C595.676,128.915 611.653,127.528 623.595,142.871 C635.852,126.388 646.323,127.482 656.14,145.193 C666.685,129.997 677.514,133.674 686.917,146.451 C695.665,127.589 708.156,126.574 722.081,140.978 C731.163,126.783 743.253,126.114 751.304,141.979 C761.778,128.146 778.205,125.401 786.459,144.359 C797.235,127.258 809.987,126.631 820.786,144.336 C828.923,128.278 840.767,129.18 851.616,141.375 C863.667,124.767 874.645,124.232 885.682,142.369 C896.273,127.659 910.956,131.344 916.891,147.133 C928.367,126.202 941.481,126.323 955.45,144.686 C965.53,127.341 978.153,126.564 988.518,144.418 C999.211,129.829 1015.893,132.703 1023,148.488 C1027.849,147.824 1029.784,149.744 1028.262,154.581 C1049.854,160.446 1052.814,171.029 1038.474,187.906 C1053.772,212.817 1045.904,229.434 1016,230.488 C1020.307,230.184 1022.799,231.288 1021.754,236.291 C1007.325,250.996 994.8,252.252 983.918,232.407 C976.625,249.151 964.656,247.8 954.635,235.122 C943.744,251.552 926.977,254.134 916.461,234.724 C908.521,248.006 897.306,246.905 888.951,235.181 C878.199,248.939 866.686,250.922 856.07,235.032 C845.755,253.813 827.89,256.387 817.41,235.193 C806.756,247.555 797.314,244.452 789.491,232.007 C779.39,249.554 766.136,251.95 753.115,235.093 C744.67,250.082 731.451,251.954 721.881,236.237 C710.254,253.367 698.868,252.077 686.243,237.353 C674.953,249.493 662.608,248.469 655.205,232.984 C647.83,247.73 631.7,253.582 621.51,235.909 C609.474,251.584 598.015,251.037 589.654,232.488 C572.187,248.816 553.953,245.279 544,223.488 C546.475,224.712 546.369,226.298 544.732,228.165 C523.06,218.528 520.823,205.353 538.789,189.606 C516.933,168.061 523.363,150.473 551,141.488 C554.288,142.671 554.867,144.996 552.617,147.636" style="stroke:#F3BD62;stroke-width:1;" fill="#2D2417"/><text x="745.954" y="160.023" fill="#F4ECDF" font-size="14" textLength="75.093" font-weight="700">Cloudflare</text></g><!--cluster Host--><g class="cluster" data-qualified-name="Host" id="ent0008" data-source-line="79"><polygon points="201,284.488,211,274.488,1075,274.488,1075,1054.488,1065,1064.488,201,1064.488,201,284.488" fill="#2D2417" style="stroke:#F3BD62;stroke-width:1;stroke-linejoin:miter;stroke-miterlimit:10;"/><line x1="1065" y1="284.488" x2="1075" y2="274.488" style="stroke:#F3BD62;stroke-width:1;"/><line x1="201" y1="284.488" x2="1065" y2="284.488" style="stroke:#F3BD62;stroke-width:1;"/><line x1="1065" y1="284.488" x2="1065" y2="1064.488" style="stroke:#F3BD62;stroke-width:1;"/><text x="578.41" y="301.023" fill="#F4ECDF" font-size="14" textLength="111.18" font-weight="700">Home AI server</text></g><!--cluster Portal--><g class="cluster" data-qualified-name="Host.Portal" id="ent0012" data-source-line="83"><polygon points="616,632.488,626,622.488,963,622.488,963,745.488,953,755.488,616,755.488,616,632.488" fill="#2D2417" style="stroke:#F3BD62;stroke-width:1;stroke-linejoin:miter;stroke-miterlimit:10;"/><line x1="953" y1="632.488" x2="963" y2="622.488" style="stroke:#F3BD62;stroke-width:1;"/><line x1="616" y1="632.488" x2="953" y2="632.488" style="stroke:#F3BD62;stroke-width:1;"/><line x1="953" y1="632.488" x2="953" y2="755.488" style="stroke:#F3BD62;stroke-width:1;"/><text x="713.203" y="649.023" fill="#F4ECDF" font-size="14" textLength="144.594" font-weight="700">systemd: kubequest</text><text x="717.404" y="665.512" fill="#F4ECDF" font-size="14" textLength="136.192" font-weight="700">12 GiB / 500% CPU</text></g><!--cluster VM--><g class="cluster" data-qualified-name="Host.VM" id="ent0015" data-source-line="87"><polygon points="221,801.488,231,791.488,837,791.488,837,1034.488,827,1044.488,221,1044.488,221,801.488" fill="#2D2417" style="stroke:#F3BD62;stroke-width:1;stroke-linejoin:miter;stroke-miterlimit:10;"/><line x1="827" y1="801.488" x2="837" y2="791.488" style="stroke:#F3BD62;stroke-width:1;"/><line x1="221" y1="801.488" x2="827" y2="801.488" style="stroke:#F3BD62;stroke-width:1;"/><line x1="827" y1="801.488" x2="827" y2="1044.488" style="stroke:#F3BD62;stroke-width:1;"/><text x="478.734" y="818.023" fill="#F4ECDF" font-size="14" textLength="92.531" font-weight="700">QEMU / KVM</text><text x="472.086" y="834.512" fill="#F4ECDF" font-size="14" textLength="105.827" font-weight="700">4 vCPU / 8 GiB</text></g><!--entity Browser--><g class="entity" data-qualified-name="Browser" id="ent0001" data-source-line="71"><polygon points="140.5,51.488,150.5,41.488,269.887,41.488,269.887,77.977,259.887,87.977,140.5,87.977,140.5,51.488" fill="#2D2417" style="stroke:#F3BD62;stroke-width:0.5;stroke-linejoin:miter;stroke-miterlimit:10;"/><line x1="259.887" y1="51.488" x2="269.887" y2="41.488" style="stroke:#F3BD62;stroke-width:0.5;"/><line x1="140.5" y1="51.488" x2="259.887" y2="51.488" style="stroke:#F3BD62;stroke-width:0.5;"/><line x1="259.887" y1="51.488" x2="259.887" y2="87.977" style="stroke:#F3BD62;stroke-width:0.5;"/><text x="155.5" y="75.023" fill="#F4ECDF" font-size="14" textLength="89.387">User browser</text></g><!--entity Runner--><g class="entity" data-qualified-name="Runner" id="ent0005" data-source-line="76"><polygon points="404.5,51.488,414.5,41.488,595.813,41.488,595.813,77.977,585.813,87.977,404.5,87.977,404.5,51.488" fill="#2D2417" style="stroke:#F3BD62;stroke-width:0.5;stroke-linejoin:miter;stroke-miterlimit:10;"/><line x1="585.813" y1="51.488" x2="595.813" y2="41.488" style="stroke:#F3BD62;stroke-width:0.5;"/><line x1="404.5" y1="51.488" x2="585.813" y2="51.488" style="stroke:#F3BD62;stroke-width:0.5;"/><line x1="585.813" y1="51.488" x2="585.813" y2="87.977" style="stroke:#F3BD62;stroke-width:0.5;"/><text x="419.5" y="75.023" fill="#F4ECDF" font-size="14" textLength="151.313">GitHub-hosted runner</text></g><!--entity WikiRepo--><g class="entity" data-qualified-name="WikiRepo" id="ent0006" data-source-line="77"><polygon points="300,186.488,310,176.488,519.751,176.488,519.751,212.977,509.751,222.977,300,222.977,300,186.488" fill="#2D2417" style="stroke:#F3BD62;stroke-width:0.5;stroke-linejoin:miter;stroke-miterlimit:10;"/><line x1="509.751" y1="186.488" x2="519.751" y2="176.488" style="stroke:#F3BD62;stroke-width:0.5;"/><line x1="300" y1="186.488" x2="509.751" y2="186.488" style="stroke:#F3BD62;stroke-width:0.5;"/><line x1="509.751" y1="186.488" x2="509.751" y2="222.977" style="stroke:#F3BD62;stroke-width:0.5;"/><text x="315" y="210.023" fill="#F4ECDF" font-size="14" textLength="179.751">kubequest-wiki repository</text></g><!--entity Pages--><g class="entity" data-qualified-name="Pages" id="ent0007" data-source-line="78"><polygon points="10,336.488,20,326.488,172.247,326.488,172.247,362.977,162.247,372.977,10,372.977,10,336.488" fill="#2D2417" style="stroke:#F3BD62;stroke-width:0.5;stroke-linejoin:miter;stroke-miterlimit:10;"/><line x1="162.247" y1="336.488" x2="172.247" y2="326.488" style="stroke:#F3BD62;stroke-width:0.5;"/><line x1="10" y1="336.488" x2="162.247" y2="336.488" style="stroke:#F3BD62;stroke-width:0.5;"/><line x1="162.247" y1="336.488" x2="162.247" y2="372.977" style="stroke:#F3BD62;stroke-width:0.5;"/><text x="25" y="360.023" fill="#F4ECDF" font-size="14" textLength="122.247">GitHub Pages wiki</text></g><g class="entity" data-qualified-name="GMN39" id="ent0040" data-source-line="114"><path d="M1095,971.488 L1095,1014.465 L1444.973,1014.465 L1444.973,981.488 L1434.973,971.488 L1095,971.488" style="stroke:#BB9658;stroke-width:0.5;" fill="#3B2E1A"/><path d="M1434.973,971.488 L1434.973,981.488 L1444.973,981.488 L1434.973,971.488" style="stroke:#BB9658;stroke-width:1;" fill="#3B2E1A"/><text x="1101" y="990.023" fill="#F4ECDF" font-size="14" textLength="328.973">No guest-initiated host, LAN, or internet access.</text><text x="1101" y="1006.512" fill="#F4ECDF" font-size="14" textLength="307.699">QEMU restrict=on; no host filesystem mount.</text></g><!--entity Tunnel--><g class="entity" data-qualified-name="Cloudflare.Tunnel" id="ent0003" data-source-line="73"><polygon points="552.5,186.488,562.5,176.488,757.438,176.488,757.438,212.977,747.438,222.977,552.5,222.977,552.5,186.488" fill="#2D2417" style="stroke:#F3BD62;stroke-width:0.5;stroke-linejoin:miter;stroke-miterlimit:10;"/><line x1="747.438" y1="186.488" x2="757.438" y2="176.488" style="stroke:#F3BD62;stroke-width:0.5;"/><line x1="552.5" y1="186.488" x2="747.438" y2="186.488" style="stroke:#F3BD62;stroke-width:0.5;"/><line x1="747.438" y1="186.488" x2="747.438" y2="222.977" style="stroke:#F3BD62;stroke-width:0.5;"/><text x="567.5" y="210.023" fill="#F4ECDF" font-size="14" textLength="164.938">HTTPS / existing Tunnel</text></g><!--entity Access--><g class="entity" data-qualified-name="Cloudflare.Access" id="ent0004" data-source-line="74"><polygon points="775.5,186.488,785.5,176.488,1014.952,176.488,1014.952,212.977,1004.952,222.977,775.5,222.977,775.5,186.488" fill="#2D2417" style="stroke:#F3BD62;stroke-width:0.5;stroke-linejoin:miter;stroke-miterlimit:10;"/><line x1="1004.952" y1="186.488" x2="1014.952" y2="176.488" style="stroke:#F3BD62;stroke-width:0.5;"/><line x1="775.5" y1="186.488" x2="1004.952" y2="186.488" style="stroke:#F3BD62;stroke-width:0.5;"/><line x1="1004.952" y1="186.488" x2="1004.952" y2="222.977" style="stroke:#F3BD62;stroke-width:0.5;"/><text x="790.5" y="210.023" fill="#F4ECDF" font-size="14" textLength="199.452">Access service authentication</text></g><!--entity CF--><g class="entity" data-qualified-name="Host.CF" id="ent0009" data-source-line="80"><polygon points="761.5,336.488,771.5,326.488,878.083,326.488,878.083,362.977,868.083,372.977,761.5,372.977,761.5,336.488" fill="#2D2417" style="stroke:#F3BD62;stroke-width:0.5;stroke-linejoin:miter;stroke-miterlimit:10;"/><line x1="868.083" y1="336.488" x2="878.083" y2="326.488" style="stroke:#F3BD62;stroke-width:0.5;"/><line x1="761.5" y1="336.488" x2="868.083" y2="336.488" style="stroke:#F3BD62;stroke-width:0.5;"/><line x1="868.083" y1="336.488" x2="868.083" y2="372.977" style="stroke:#F3BD62;stroke-width:0.5;"/><text x="776.5" y="360.023" fill="#F4ECDF" font-size="14" textLength="76.583">cloudflared</text></g><!--entity SSH--><g class="entity" data-qualified-name="Host.SSH" id="ent0010" data-source-line="81"><polygon points="608.5,438.488,618.5,428.488,925.684,428.488,925.684,464.977,915.684,474.977,608.5,474.977,608.5,438.488" fill="#2D2417" style="stroke:#F3BD62;stroke-width:0.5;stroke-linejoin:miter;stroke-miterlimit:10;"/><line x1="915.684" y1="438.488" x2="925.684" y2="428.488" style="stroke:#F3BD62;stroke-width:0.5;"/><line x1="608.5" y1="438.488" x2="915.684" y2="438.488" style="stroke:#F3BD62;stroke-width:0.5;"/><line x1="915.684" y1="438.488" x2="915.684" y2="474.977" style="stroke:#F3BD62;stroke-width:0.5;"/><text x="623.5" y="462.023" fill="#F4ECDF" font-size="14" textLength="277.184">OpenSSH / forced deployment command</text></g><!--entity Switch--><g class="entity" data-qualified-name="Host.Switch" id="ent0011" data-source-line="82"><polygon points="654,540.488,664,530.488,891.572,530.488,891.572,566.977,881.572,576.977,654,576.977,654,540.488" fill="#2D2417" style="stroke:#F3BD62;stroke-width:0.5;stroke-linejoin:miter;stroke-miterlimit:10;"/><line x1="881.572" y1="540.488" x2="891.572" y2="530.488" style="stroke:#F3BD62;stroke-width:0.5;"/><line x1="654" y1="540.488" x2="881.572" y2="540.488" style="stroke:#F3BD62;stroke-width:0.5;"/><line x1="881.572" y1="540.488" x2="881.572" y2="576.977" style="stroke:#F3BD62;stroke-width:0.5;"/><text x="669" y="564.023" fill="#F4ECDF" font-size="14" textLength="197.572">Root-owned release switcher</text></g><!--entity AI--><g class="entity" data-qualified-name="Host.AI" id="ent0021" data-source-line="94"><polygon points="857,869.488,867,859.488,1054.562,859.488,1054.562,895.977,1044.562,905.977,857,905.977,857,869.488" fill="#2D2417" style="stroke:#F3BD62;stroke-width:0.5;stroke-linejoin:miter;stroke-miterlimit:10;"/><line x1="1044.562" y1="869.488" x2="1054.562" y2="859.488" style="stroke:#F3BD62;stroke-width:0.5;"/><line x1="857" y1="869.488" x2="1044.562" y2="869.488" style="stroke:#F3BD62;stroke-width:0.5;"/><line x1="1044.562" y1="869.488" x2="1044.562" y2="905.977" style="stroke:#F3BD62;stroke-width:0.5;"/><text x="872" y="893.023" fill="#F4ECDF" font-size="14" textLength="157.562">Ollama existing service</text></g><!--entity Env--><g class="entity" data-qualified-name="Host.Env" id="ent0022" data-source-line="95"><rect x="452" y="533.988" width="183.891" height="39.488" fill="#2D2417" style="stroke:#F3BD62;stroke-width:0.5;" rx="2.5" ry="2.5"/><polygon points="618.891,538.988,618.891,552.988,630.891,552.988,630.891,544.988,624.891,538.988,618.891,538.988" fill="#2D2417" style="stroke:#F3BD62;stroke-width:0.5;stroke-linejoin:miter;stroke-miterlimit:10;"/><line x1="624.891" y1="538.988" x2="624.891" y2="544.988" style="stroke:#F3BD62;stroke-width:0.5;"/><line x1="630.891" y1="544.988" x2="624.891" y2="544.988" style="stroke:#F3BD62;stroke-width:0.5;"/><text x="462" y="560.523" fill="#F4ECDF" font-size="14" textLength="153.891">Root-only runtime.env</text></g><!--entity Template--><g class="entity" data-qualified-name="Host.Template" id="ent0023" data-source-line="96"><rect x="382.5" y="693.488" width="212.759" height="39.488" fill="#2D2417" style="stroke:#F3BD62;stroke-width:0.5;" rx="2.5" ry="2.5"/><polygon points="578.259,698.488,578.259,712.488,590.259,712.488,590.259,704.488,584.259,698.488,578.259,698.488" fill="#2D2417" style="stroke:#F3BD62;stroke-width:0.5;stroke-linejoin:miter;stroke-miterlimit:10;"/><line x1="584.259" y1="698.488" x2="584.259" y2="704.488" style="stroke:#F3BD62;stroke-width:0.5;"/><line x1="590.259" y1="704.488" x2="584.259" y2="704.488" style="stroke:#F3BD62;stroke-width:0.5;"/><text x="392.5" y="720.023" fill="#F4ECDF" font-size="14" textLength="182.759">Read-only template.qcow2</text></g><!--entity App--><g class="entity" data-qualified-name="Host.Portal.App" id="ent0013" data-source-line="84"><rect x="781.5" y="693.488" width="160.56" height="39.488" fill="#2D2417" style="stroke:#F3BD62;stroke-width:0.5;" rx="2.5" ry="2.5"/><polygon points="925.06,698.488,925.06,712.488,937.06,712.488,937.06,704.488,931.06,698.488,925.06,698.488" fill="#2D2417" style="stroke:#F3BD62;stroke-width:0.5;stroke-linejoin:miter;stroke-miterlimit:10;"/><line x1="931.06" y1="698.488" x2="931.06" y2="704.488" style="stroke:#F3BD62;stroke-width:0.5;"/><line x1="937.06" y1="704.488" x2="931.06" y2="704.488" style="stroke:#F3BD62;stroke-width:0.5;"/><text x="791.5" y="720.023" fill="#F4ECDF" font-size="14" textLength="130.56">React dist + Fastify</text></g><!--entity DB--><g class="entity" data-qualified-name="Host.Portal.DB" id="ent0014" data-source-line="85"><path d="M636.5,700.488 C636.5,690.488 700.032,690.488 700.032,690.488 C700.032,690.488 763.564,690.488 763.564,700.488 L763.564,725.977 C763.564,735.977 700.032,735.977 700.032,735.977 C700.032,735.977 636.5,735.977 636.5,725.977 L636.5,700.488" style="stroke:#F3BD62;stroke-width:0.5;" fill="#2D2417"/><path d="M636.5,700.488 C636.5,710.488 700.032,710.488 700.032,710.488 C700.032,710.488 763.564,710.488 763.564,700.488" style="stroke:#F3BD62;stroke-width:0.5;" fill="none"/><text x="646.5" y="728.023" fill="#F4ECDF" font-size="14" textLength="107.064">SQLite progress</text></g><!--entity Cluster--><g class="entity" data-qualified-name="Host.VM.Cluster" id="ent0016" data-source-line="88"><polygon points="345.5,971.488,355.5,961.488,634.998,961.488,634.998,1014.465,624.998,1024.465,345.5,1024.465,345.5,971.488" fill="#2D2417" style="stroke:#F3BD62;stroke-width:0.5;stroke-linejoin:miter;stroke-miterlimit:10;"/><line x1="624.998" y1="971.488" x2="634.998" y2="961.488" style="stroke:#F3BD62;stroke-width:0.5;"/><line x1="345.5" y1="971.488" x2="624.998" y2="971.488" style="stroke:#F3BD62;stroke-width:0.5;"/><line x1="624.998" y1="971.488" x2="624.998" y2="1024.465" style="stroke:#F3BD62;stroke-width:0.5;"/><text x="360.5" y="995.023" fill="#F4ECDF" font-size="14" textLength="117.981">K3s 1.35.8+k3s1</text><text x="360.5" y="1011.512" fill="#F4ECDF" font-size="14" textLength="249.498">Traefik / local-path / network policy</text></g><!--entity Fixtures--><g class="entity" data-qualified-name="Host.VM.Fixtures" id="ent0017" data-source-line="89"><rect x="531.5" y="862.988" width="251.327" height="39.488" fill="#2D2417" style="stroke:#F3BD62;stroke-width:0.5;" rx="2.5" ry="2.5"/><polygon points="765.827,867.988,765.827,881.988,777.827,881.988,777.827,873.988,771.827,867.988,765.827,867.988" fill="#2D2417" style="stroke:#F3BD62;stroke-width:0.5;stroke-linejoin:miter;stroke-miterlimit:10;"/><line x1="771.827" y1="867.988" x2="771.827" y2="873.988" style="stroke:#F3BD62;stroke-width:0.5;"/><line x1="777.827" y1="873.988" x2="771.827" y2="873.988" style="stroke:#F3BD62;stroke-width:0.5;"/><text x="541.5" y="889.523" fill="#F4ECDF" font-size="14" textLength="221.327">Preloaded images + Helm charts</text></g><!--entity Containers--><g class="entity" data-qualified-name="Host.VM.Containers" id="ent0018" data-source-line="90"><polygon points="241,869.488,251,859.488,513.169,859.488,513.169,895.977,503.169,905.977,241,905.977,241,869.488" fill="#2D2417" style="stroke:#F3BD62;stroke-width:0.5;stroke-linejoin:miter;stroke-miterlimit:10;"/><line x1="503.169" y1="869.488" x2="513.169" y2="859.488" style="stroke:#F3BD62;stroke-width:0.5;"/><line x1="241" y1="869.488" x2="503.169" y2="869.488" style="stroke:#F3BD62;stroke-width:0.5;"/><line x1="503.169" y1="869.488" x2="503.169" y2="905.977" style="stroke:#F3BD62;stroke-width:0.5;"/><text x="256" y="893.023" fill="#F4ECDF" font-size="14" textLength="232.169">Podman + local practice registries</text></g><g class="link" data-entity-1="ent0017" data-entity-2="ent0016" id="lnk19" data-link-type="dependency"><polygon points="559.454,961.436,569.282,960.801,563.883,959.115,565.568,953.715,559.454,961.436" fill="#F3BD62" style="stroke:#F3BD62;stroke-width:1;stroke-linejoin:miter;stroke-miterlimit:10;"/><path d="M639.102,902.053 C626.227,914.746 608.023,931.396 590,943.488 C580.466,949.885 574.391,953.607 563.883,959.115" style="stroke:#F3BD62;stroke-width:1;" fill="none"/></g><g class="link" data-entity-1="ent0018" data-entity-2="ent0016" id="lnk20" data-link-type="dependency"><polygon points="457.896,961.163,454.175,952.044,454.29,957.7,448.634,957.815,457.896,961.163" fill="#F3BD62" style="stroke:#F3BD62;stroke-width:1;stroke-linejoin:miter;stroke-miterlimit:10;"/><path d="M400.14,905.707 C416.799,921.702 435.88,940.023 454.29,957.7" style="stroke:#F3BD62;stroke-width:1;" fill="none"/><text x="439" y="939.023" fill="#F4ECDF" font-size="14" textLength="145.038">local image exercises</text></g><g class="link" data-entity-1="ent0001" data-entity-2="ent0007" id="lnk24" data-link-type="dependency"><polygon points="85.049,326.25,86.879,316.573,83.903,321.383,79.092,318.406,85.049,326.25" fill="#F3BD62" style="stroke:#F3BD62;stroke-width:1;stroke-linejoin:miter;stroke-miterlimit:10;"/><path d="M147.502,87.626 C127.632,98.336 107.488,113.337 96,133.488 C60.589,195.603 74.212,280.23 83.903,321.383" style="stroke:#F3BD62;stroke-width:1;" fill="none"/><text x="98" y="205.023" fill="#F4ECDF" font-size="14" textLength="191.058">HTTPS static documentation</text></g><g class="link" data-entity-1="ent0005" data-entity-2="ent0006" id="lnk25" data-link-type="dependency"><polygon points="425.113,176.154,433.47,170.942,427.915,172.013,426.844,166.459,425.113,176.154" fill="#F3BD62" style="stroke:#F3BD62;stroke-width:1;stroke-linejoin:miter;stroke-miterlimit:10;"/><path d="M484.936,87.749 C468.323,112.301 444.548,147.433 427.915,172.013" style="stroke:#F3BD62;stroke-width:1;" fill="none"/><text x="473" y="121.023" fill="#F4ECDF" font-size="14" textLength="188.891">generated release reference</text></g><g class="link" data-entity-1="ent0006" data-entity-2="ent0007" id="lnk26" data-link-type="dependency"><polygon points="118.452,326.153,128.017,323.805,122.405,323.092,123.119,317.48,118.452,326.153" fill="#F3BD62" style="stroke:#F3BD62;stroke-width:1;stroke-linejoin:miter;stroke-miterlimit:10;"/><path d="M339.916,222.539 C288.154,239.255 222.454,261.497 197,274.488 C168.614,288.976 143.058,307.098 122.405,323.092" style="stroke:#F3BD62;stroke-width:1;" fill="none"/><text x="271" y="262.023" fill="#F4ECDF" font-size="14" textLength="136.972">validate and publish</text></g><g class="link" data-entity-1="ent0001" data-entity-2="ent0003" id="lnk27" data-link-type="dependency"><polygon points="621.867,176.331,616.302,168.205,617.61,173.709,612.107,175.017,621.867,176.331" fill="#F3BD62" style="stroke:#F3BD62;stroke-width:1;stroke-linejoin:miter;stroke-miterlimit:10;"/><path d="M246.872,87.541 C274.94,101.153 313.183,117.494 349,125.488 C427.156,142.933 451.619,112.875 529,133.488 C562.537,142.422 593.097,158.611 617.61,173.709" style="stroke:#F3BD62;stroke-width:1;" fill="none"/><text x="351" y="121.023" fill="#F4ECDF" font-size="14" textLength="104.419">HTTPS and WSS</text></g><g class="link" data-entity-1="ent0003" data-entity-2="ent0009" id="lnk28" data-link-type="dependency"><polygon points="795.399,326.422,791.37,317.435,791.677,323.083,786.028,323.39,795.399,326.422" fill="#F3BD62" style="stroke:#F3BD62;stroke-width:1;stroke-linejoin:miter;stroke-miterlimit:10;"/><path d="M679.702,222.645 C710.898,250.627 760.529,295.144 791.677,323.083" style="stroke:#F3BD62;stroke-width:1;" fill="none"/></g><g class="link" data-entity-1="ent0009" data-entity-2="ent0013" id="lnk29" data-link-type="dependency"><polygon points="883.65,693.24,892.933,689.951,887.279,689.8,887.43,684.145,883.65,693.24" fill="#F3BD62" style="stroke:#F3BD62;stroke-width:1;stroke-linejoin:miter;stroke-miterlimit:10;"/><path d="M878.588,359.293 C897.712,365.072 917.279,374.642 930,390.488 C940.664,403.772 933.631,411.509 935,428.488 C941.647,510.917 967.373,536.453 940,614.488 C928.878,646.194 906.259,671.809 887.279,689.8" style="stroke:#F3BD62;stroke-width:1;" fill="none"/><text x="950" y="508.023" fill="#F4ECDF" font-size="14" textLength="106.224">loopback :4340</text></g><g class="link" data-entity-1="ent0005" data-entity-2="ent0004" id="lnk30" data-link-type="dependency"><polygon points="856.42,176.378,850.447,168.547,852.034,173.976,846.605,175.564,856.42,176.378" fill="#F3BD62" style="stroke:#F3BD62;stroke-width:1;stroke-linejoin:miter;stroke-miterlimit:10;"/><path d="M595.673,83.91 C647.36,95.333 711.731,111.96 767,133.488 C798.004,145.565 827.095,160.321 852.034,173.976" style="stroke:#F3BD62;stroke-width:1;" fill="none"/><text x="740" y="121.023" fill="#F4ECDF" font-size="14" textLength="164.582">Cloudflare service token</text></g><g class="link" data-entity-1="ent0004" data-entity-2="ent0009" id="lnk31" data-link-type="dependency"><polygon points="831.305,326.18,838.941,319.96,833.565,321.72,831.805,316.344,831.305,326.18" fill="#F3BD62" style="stroke:#F3BD62;stroke-width:1;stroke-linejoin:miter;stroke-miterlimit:10;"/><path d="M883.772,222.645 C869.633,250.546 847.74,293.747 833.565,321.72" style="stroke:#F3BD62;stroke-width:1;" fill="none"/></g><g class="link" data-entity-1="ent0009" data-entity-2="ent0010" id="lnk32" data-link-type="dependency"><polygon points="778.73,428.357,786.478,422.278,781.071,423.939,779.41,418.532,778.73,428.357" fill="#F3BD62" style="stroke:#F3BD62;stroke-width:1;stroke-linejoin:miter;stroke-miterlimit:10;"/><path d="M808.238,372.682 C799.455,389.253 789.846,407.382 781.071,423.939" style="stroke:#F3BD62;stroke-width:1;" fill="none"/><text x="800" y="406.023" fill="#F4ECDF" font-size="14" textLength="124.551">existing SSH route</text></g><g class="link" data-entity-1="ent0010" data-entity-2="ent0011" id="lnk33" data-link-type="dependency"><polygon points="771.672,530.357,775.126,521.134,771.373,525.366,767.14,521.613,771.672,530.357" fill="#F3BD62" style="stroke:#F3BD62;stroke-width:1;stroke-linejoin:miter;stroke-miterlimit:10;"/><path d="M768.332,474.682 C769.326,491.253 770.379,508.809 771.373,525.366" style="stroke:#F3BD62;stroke-width:1;" fill="none"/><text x="772" y="508.023" fill="#F4ECDF" font-size="14" textLength="132.234">narrow sudo helper</text></g><g class="link" data-entity-1="ent0011" data-entity-2="ent0013" id="lnk34" data-link-type="dependency"><polygon points="837.354,693.446,832.985,684.62,833.507,690.253,827.875,690.775,837.354,693.446" fill="#F3BD62" style="stroke:#F3BD62;stroke-width:1;stroke-linejoin:miter;stroke-miterlimit:10;"/><path d="M769.724,576.592 C768.887,588.25 769.301,602.567 774,614.488 C786.876,647.158 812.259,672.611 833.507,690.253" style="stroke:#F3BD62;stroke-width:1;" fill="none"/><text x="776" y="610.023" fill="#F4ECDF" font-size="14" textLength="162.914">atomic release + restart</text></g><g class="link" data-entity-1="ent0022" data-entity-2="ent0013" id="lnk35" data-link-type="dependency"><polygon points="848.024,693.129,845.595,683.585,844.929,689.202,839.312,688.537,848.024,693.129" fill="#F3BD62" style="stroke:#F3BD62;stroke-width:1;stroke-linejoin:miter;stroke-miterlimit:10;"/><path d="M621.264,573.059 C677.148,587.302 747.186,607.07 773,622.488 C804.041,641.029 828.946,668.923 844.929,689.202" style="stroke:#F3BD62;stroke-width:1;" fill="none"/></g><g class="link" data-entity-1="ent0013" data-entity-2="ent0015" id="lnk36" data-link-type="dependency"><polygon points="791.951,791.42,789.907,781.786,789.016,787.372,783.43,786.482,791.951,791.42" fill="#F3BD62" style="stroke:#F3BD62;stroke-width:1;stroke-linejoin:miter;stroke-miterlimit:10;"/><path d="M811.821,732.503 C798.466,739.993 785.642,750.114 778,763.488 C773.59,771.206 773.538,775.8 778,783.488 C779.799,786.587 782.259,787.128 784.789,787.624 C786.054,787.872 787.337,788.109 788.564,788.648 C789.177,788.917 789.776,789.263 790.352,789.723 C790.64,789.953 790.922,790.212 791.197,790.505 C791.334,790.651 791.47,790.806 791.604,790.969 C791.671,791.051 791.738,791.135 791.804,791.222 C791.837,791.265 791.869,791.309 791.902,791.353 C791.919,791.375 789,787.35 789.016,787.372" style="stroke:#F3BD62;stroke-width:1;" fill="none"/><text x="780" y="779.023" fill="#F4ECDF" font-size="14" textLength="144.874">loopback SSH :22240</text></g><g class="link" data-entity-1="ent0023" data-entity-2="ent0015" id="lnk37" data-link-type="dependency"><polygon points="791.886,791.391,787.489,782.578,788.029,788.209,782.398,788.749,791.886,791.391" fill="#F3BD62" style="stroke:#F3BD62;stroke-width:1;stroke-linejoin:miter;stroke-miterlimit:10;"/><path d="M529.527,732.59 C567.339,749.027 625.762,772.103 679,783.488 C685.154,784.804 711.054,784.712 736.59,785.337 C749.358,785.649 762.036,786.141 772.108,787.078 C777.145,787.546 781.53,788.126 784.95,788.85 C786.66,789.212 788.129,789.61 789.317,790.048 C789.911,790.267 790.435,790.497 790.884,790.736 C791.108,790.856 791.314,790.979 791.5,791.104 C791.593,791.167 791.681,791.23 791.765,791.294 C791.806,791.326 787.99,788.177 788.029,788.209" style="stroke:#F3BD62;stroke-width:1;" fill="none"/><text x="681" y="779.023" fill="#F4ECDF" font-size="14" textLength="87.397">fresh overlay</text></g><g class="link" data-entity-1="ent0013" data-entity-2="ent0021" id="lnk38" data-link-type="dependency"><polygon points="954.927,859.301,958.144,849.992,954.5,854.319,950.173,850.675,954.927,859.301" fill="#F3BD62" style="stroke:#F3BD62;stroke-width:1;stroke-linejoin:miter;stroke-miterlimit:10;"/><path d="M894.977,732.571 C906.665,740.67 918.91,751.153 927,763.488 C946.321,792.948 952.348,829.205 954.5,854.319" style="stroke:#F3BD62;stroke-width:1;" fill="none"/><text x="938" y="779.023" fill="#F4ECDF" font-size="14" textLength="102.115">loopback HTTP</text></g><g class="link" data-entity-1="ent0015" data-entity-2="ent0040" id="lnk41" data-link-type="association"><path d="M837.344,915.241 C837.576,915.358 837.809,915.474 838.043,915.591 C838.979,916.056 839.933,916.519 840.903,916.979 C848.665,920.664 857.49,924.204 867.188,927.601 C886.585,934.394 909.475,940.616 934.336,946.283 C984.056,957.615 1041.659,966.725 1094.959,973.738" style="stroke:#F3BD62;stroke-width:1;stroke-dasharray:7,7;" fill="none"/></g></g></svg>