<svg xmlns="http://www.w3.org/2000/svg" xmlns:xlink="http://www.w3.org/1999/xlink" version="1.1" data-diagram-type="DESCRIPTION" style="width:1379px;height:457px;background:#17130D;" width="1379px" height="457px" viewBox="0 0 1379 457" zoomAndPan="magnify" preserveAspectRatio="none" contentStyleType="text/css"><?plantuml 1.2026.8?><defs/><g font-family="sans-serif" lengthAdjust="spacing"><rect x="0" y="0" width="1379" height="457" fill="#17130D" style="stroke:none;"/><g class="title" data-source-line="70"><text x="529.911" y="23.535" fill="#F4ECDF" font-size="14" textLength="313.038" font-weight="700">KubeQuest - source package dependencies</text></g><!--entity UI--><g class="entity" data-qualified-name="UI" id="ent0001" data-source-line="71"><path d="M703.171,273.488 L731.121,273.488 A3.75,3.75 0 0 1 733.621,275.988 L740.621,295.977 L755.121,295.977 A2.5,2.5 0 0 1 757.621,298.477 L757.621,326.965 A2.5,2.5 0 0 1 755.121,329.465 L703.171,329.465 A2.5,2.5 0 0 1 700.671,326.965 L700.671,275.988 A2.5,2.5 0 0 1 703.171,273.488" style="stroke:#F3BD62;stroke-width:0.5;" fill="#2D2417"/><line x1="700.671" y1="295.977" x2="740.621" y2="295.977" style="stroke:#F3BD62;stroke-width:0.5;"/><text x="710.671" y="290.023" fill="#F4ECDF" font-size="14" textLength="14.95" font-weight="700">UI</text><text x="710.671" y="316.512" fill="#F4ECDF" font-size="14" textLength="20.036">src</text></g><!--entity Content--><g class="entity" data-qualified-name="Content" id="ent0002" data-source-line="72"><path d="M315.171,385.488 L385.026,385.488 A3.75,3.75 0 0 1 387.526,387.988 L394.526,407.977 L409.026,407.977 A2.5,2.5 0 0 1 411.526,410.477 L411.526,438.965 A2.5,2.5 0 0 1 409.026,441.465 L315.171,441.465 A2.5,2.5 0 0 1 312.671,438.965 L312.671,387.988 A2.5,2.5 0 0 1 315.171,385.488" style="stroke:#F3BD62;stroke-width:0.5;" fill="#2D2417"/><line x1="312.671" y1="407.977" x2="394.526" y2="407.977" style="stroke:#F3BD62;stroke-width:0.5;"/><text x="322.671" y="402.023" fill="#F4ECDF" font-size="14" textLength="56.854" font-weight="700">Content</text><text x="322.671" y="428.512" fill="#F4ECDF" font-size="14" textLength="51.42">content</text></g><!--entity Server--><g class="entity" data-qualified-name="Server" id="ent0003" data-source-line="73"><path d="M460.171,273.488 L518.61,273.488 A3.75,3.75 0 0 1 521.11,275.988 L528.11,295.977 L542.61,295.977 A2.5,2.5 0 0 1 545.11,298.477 L545.11,326.965 A2.5,2.5 0 0 1 542.61,329.465 L460.171,329.465 A2.5,2.5 0 0 1 457.671,326.965 L457.671,275.988 A2.5,2.5 0 0 1 460.171,273.488" style="stroke:#F3BD62;stroke-width:0.5;" fill="#2D2417"/><line x1="457.671" y1="295.977" x2="528.11" y2="295.977" style="stroke:#F3BD62;stroke-width:0.5;"/><text x="467.671" y="290.023" fill="#F4ECDF" font-size="14" textLength="45.438" font-weight="700">Server</text><text x="467.671" y="316.512" fill="#F4ECDF" font-size="14" textLength="41.439">server</text></g><!--entity Wiki--><g class="entity" data-qualified-name="Wiki" id="ent0004" data-source-line="74"><path d="M932.671,385.488 L976.289,385.488 A3.75,3.75 0 0 1 978.789,387.988 L985.789,407.977 L1137.422,407.977 A2.5,2.5 0 0 1 1139.922,410.477 L1139.922,438.965 A2.5,2.5 0 0 1 1137.422,441.465 L932.671,441.465 A2.5,2.5 0 0 1 930.171,438.965 L930.171,387.988 A2.5,2.5 0 0 1 932.671,385.488" style="stroke:#F3BD62;stroke-width:0.5;" fill="#2D2417"/><line x1="930.171" y1="407.977" x2="985.789" y2="407.977" style="stroke:#F3BD62;stroke-width:0.5;"/><text x="940.171" y="402.023" fill="#F4ECDF" font-size="14" textLength="30.618" font-weight="700">Wiki</text><text x="940.171" y="428.512" fill="#F4ECDF" font-size="14" textLength="179.751">kubequest-wiki repository</text></g><!--entity Assets--><g class="entity" data-qualified-name="Assets" id="ent0005" data-source-line="75"><path d="M634.671,385.488 L695.605,385.488 A3.75,3.75 0 0 1 698.105,387.988 L705.105,407.977 L823.74,407.977 A2.5,2.5 0 0 1 826.24,410.477 L826.24,438.965 A2.5,2.5 0 0 1 823.74,441.465 L634.671,441.465 A2.5,2.5 0 0 1 632.171,438.965 L632.171,387.988 A2.5,2.5 0 0 1 634.671,385.488" style="stroke:#F3BD62;stroke-width:0.5;" fill="#2D2417"/><line x1="632.171" y1="407.977" x2="705.105" y2="407.977" style="stroke:#F3BD62;stroke-width:0.5;"/><text x="642.171" y="402.023" fill="#F4ECDF" font-size="14" textLength="47.934" font-weight="700">Assets</text><text x="642.171" y="428.512" fill="#F4ECDF" font-size="14" textLength="164.069">public/icons and demos</text></g><!--entity Infra--><g class="entity" data-qualified-name="Infra" id="ent0006" data-source-line="76"><path d="M248.671,161.488 L295.905,161.488 A3.75,3.75 0 0 1 298.405,163.988 L305.405,183.977 L319.905,183.977 A2.5,2.5 0 0 1 322.405,186.477 L322.405,214.965 A2.5,2.5 0 0 1 319.905,217.465 L248.671,217.465 A2.5,2.5 0 0 1 246.171,214.965 L246.171,163.988 A2.5,2.5 0 0 1 248.671,161.488" style="stroke:#F3BD62;stroke-width:0.5;" fill="#2D2417"/><line x1="246.171" y1="183.977" x2="305.405" y2="183.977" style="stroke:#F3BD62;stroke-width:0.5;"/><text x="256.171" y="178.023" fill="#F4ECDF" font-size="14" textLength="34.234" font-weight="700">Infra</text><text x="256.171" y="204.512" fill="#F4ECDF" font-size="14" textLength="31.343">infra</text></g><!--entity Scripts--><g class="entity" data-qualified-name="Scripts" id="ent0007" data-source-line="77"><path d="M1078.171,273.488 L1140.404,273.488 A3.75,3.75 0 0 1 1142.904,275.988 L1149.904,295.977 L1164.404,295.977 A2.5,2.5 0 0 1 1166.904,298.477 L1166.904,326.965 A2.5,2.5 0 0 1 1164.404,329.465 L1078.171,329.465 A2.5,2.5 0 0 1 1075.671,326.965 L1075.671,275.988 A2.5,2.5 0 0 1 1078.171,273.488" style="stroke:#F3BD62;stroke-width:0.5;" fill="#2D2417"/><line x1="1075.671" y1="295.977" x2="1149.904" y2="295.977" style="stroke:#F3BD62;stroke-width:0.5;"/><text x="1085.671" y="290.023" fill="#F4ECDF" font-size="14" textLength="49.232" font-weight="700">Scripts</text><text x="1085.671" y="316.512" fill="#F4ECDF" font-size="14" textLength="45.268">scripts</text></g><!--entity Tests--><g class="entity" data-qualified-name="Tests" id="ent0008" data-source-line="78"><path d="M246.171,49.488 L298.539,49.488 A3.75,3.75 0 0 1 301.039,51.988 L308.039,71.977 L322.539,71.977 A2.5,2.5 0 0 1 325.039,74.477 L325.039,102.965 A2.5,2.5 0 0 1 322.539,105.465 L246.171,105.465 A2.5,2.5 0 0 1 243.671,102.965 L243.671,51.988 A2.5,2.5 0 0 1 246.171,49.488" style="stroke:#F3BD62;stroke-width:0.5;" fill="#2D2417"/><line x1="243.671" y1="71.977" x2="308.039" y2="71.977" style="stroke:#F3BD62;stroke-width:0.5;"/><text x="253.671" y="66.023" fill="#F4ECDF" font-size="14" textLength="39.368" font-weight="700">Tests</text><text x="253.671" y="92.512" fill="#F4ECDF" font-size="14" textLength="32.546">tests</text></g><!--entity Workflows--><g class="entity" data-qualified-name="Workflows" id="ent0009" data-source-line="79"><path d="M1046.171,161.488 L1135.282,161.488 A3.75,3.75 0 0 1 1137.782,163.988 L1144.782,183.977 L1196.159,183.977 A2.5,2.5 0 0 1 1198.659,186.477 L1198.659,214.965 A2.5,2.5 0 0 1 1196.159,217.465 L1046.171,217.465 A2.5,2.5 0 0 1 1043.671,214.965 L1043.671,163.988 A2.5,2.5 0 0 1 1046.171,161.488" style="stroke:#F3BD62;stroke-width:0.5;" fill="#2D2417"/><line x1="1043.671" y1="183.977" x2="1144.782" y2="183.977" style="stroke:#F3BD62;stroke-width:0.5;"/><text x="1053.671" y="178.023" fill="#F4ECDF" font-size="14" textLength="76.111" font-weight="700">Workflows</text><text x="1053.671" y="204.512" fill="#F4ECDF" font-size="14" textLength="124.988">.github/workflows</text></g><g class="entity" data-qualified-name="GMN21" id="ent0022" data-source-line="92"><path d="M77.171,279.988 L77.171,322.965 A0,0 0 0 0 77.171,322.965 L439.667,322.965 A0,0 0 0 0 439.667,322.965 L439.667,289.988 L429.667,279.988 L267.056,279.988 L277.744,217.679 L259.056,279.988 L77.171,279.988 A0,0 0 0 0 77.171,279.988" style="stroke:#BB9658;stroke-width:0.5;" fill="#3B2E1A"/><path d="M429.667,279.988 L429.667,289.988 L439.667,289.988 L429.667,279.988" style="stroke:#BB9658;stroke-width:0.5;" fill="#3B2E1A"/><text x="83.171" y="298.523" fill="#F4ECDF" font-size="14" textLength="336.198">Root deployment helpers are installed separately.</text><text x="83.171" y="315.012" fill="#F4ECDF" font-size="14" textLength="341.496">A normal application release cannot replace them.</text></g><g class="link" data-entity-1="ent0001" data-entity-2="ent0002" id="lnk10" data-link-type="dependency"><polygon points="411.972,403.989,421.56,406.241,416.884,403.057,420.068,398.381,411.972,403.989" fill="#F3BD62" style="stroke:#F3BD62;stroke-width:1;stroke-linejoin:miter;stroke-miterlimit:10;"/><path d="M700.546,310.918 C673.145,319.264 630.823,332.879 595.171,347.488 C576.411,355.176 573.271,360.688 554.171,367.488 C507.081,384.254 456.166,395.6 416.884,403.057" style="stroke:#F3BD62;stroke-width:1;" fill="none"/><text x="597.171" y="363.023" fill="#F4ECDF" font-size="14" textLength="126.608">lessons / missions</text></g><g class="link" data-entity-1="ent0001" data-entity-2="ent0004" id="lnk11" data-link-type="dependency"><polygon points="935.27,385.436,928.501,378.282,930.655,383.513,925.424,385.667,935.27,385.436" fill="#F3BD62" style="stroke:#F3BD62;stroke-width:1;stroke-linejoin:miter;stroke-miterlimit:10;"/><path d="M757.875,306.417 C789.865,311.793 842.21,323.631 881.171,347.488 C891.627,353.891 889.825,360.909 900.171,367.488 C911.012,374.382 918.403,378.408 930.655,383.513" style="stroke:#F3BD62;stroke-width:1;stroke-dasharray:7,7;" fill="none"/><text x="902.171" y="363.023" fill="#F4ECDF" font-size="14" textLength="191.81">external documentation link</text></g><g class="link" data-entity-1="ent0001" data-entity-2="ent0005" id="lnk12" data-link-type="dependency"><polygon points="729.171,385.229,733.171,376.229,729.171,380.229,725.171,376.229,729.171,385.229" fill="#F3BD62" style="stroke:#F3BD62;stroke-width:1;stroke-linejoin:miter;stroke-miterlimit:10;"/><path d="M729.171,329.679 C729.171,346.603 729.171,363.293 729.171,380.229" style="stroke:#F3BD62;stroke-width:1;" fill="none"/><text x="731.171" y="363.023" fill="#F4ECDF" font-size="14" textLength="147.861">local artwork / videos</text></g><g class="link" data-entity-1="ent0003" data-entity-2="ent0002" id="lnk13" data-link-type="dependency"><polygon points="355.39,385.475,358.268,376.056,354.783,380.512,350.327,377.027,355.39,385.475" fill="#F3BD62" style="stroke:#F3BD62;stroke-width:1;stroke-linejoin:miter;stroke-miterlimit:10;"/><path d="M457.604,325.797 C454.451,327.138 451.287,328.387 448.171,329.488 C411.765,342.363 387.714,317.675 363.171,347.488 C354.635,357.857 353.212,367.668 354.783,380.512" style="stroke:#F3BD62;stroke-width:1;" fill="none"/><text x="365.171" y="363.023" fill="#F4ECDF" font-size="14" textLength="187.619">known missions / solutions</text></g><g class="link" data-entity-1="ent0008" data-entity-2="ent0003" id="lnk14" data-link-type="dependency"><polygon points="490.538,273.171,490.724,263.324,488.594,268.564,483.353,266.434,490.538,273.171" fill="#F3BD62" style="stroke:#F3BD62;stroke-width:1;stroke-linejoin:miter;stroke-miterlimit:10;"/><path d="M324.757,89.019 C346.257,96.114 372.086,107.202 391.171,123.488 C440.297,165.409 472.451,230.317 488.594,268.564" style="stroke:#F3BD62;stroke-width:1;" fill="none"/></g><g class="link" data-entity-1="ent0008" data-entity-2="ent0002" id="lnk15" data-link-type="dependency"><polygon points="312.472,405.718,304.171,400.418,307.528,404.971,302.976,408.328,312.472,405.718" fill="#F3BD62" style="stroke:#F3BD62;stroke-width:1;stroke-linejoin:miter;stroke-miterlimit:10;"/><path d="M243.542,98.264 C163.744,139.731 0,239.407 68.171,329.488 C97.616,368.396 231.671,393.505 307.528,404.971" style="stroke:#F3BD62;stroke-width:1;" fill="none"/></g><g class="link" data-entity-1="ent0008" data-entity-2="ent0006" id="lnk16" data-link-type="dependency"><polygon points="284.171,161.229,288.171,152.229,284.171,156.229,280.171,152.229,284.171,161.229" fill="#F3BD62" style="stroke:#F3BD62;stroke-width:1;stroke-linejoin:miter;stroke-miterlimit:10;"/><path d="M284.171,105.679 C284.171,122.603 284.171,139.293 284.171,156.229" style="stroke:#F3BD62;stroke-width:1;" fill="none"/><text x="286.171" y="139.023" fill="#F4ECDF" font-size="14" textLength="99.668">archive guards</text></g><g class="link" data-entity-1="ent0007" data-entity-2="ent0004" id="lnk17" data-link-type="dependency"><polygon points="1081.364,385.485,1090.88,382.949,1085.256,382.346,1085.858,376.722,1081.364,385.485" fill="#F3BD62" style="stroke:#F3BD62;stroke-width:1;stroke-linejoin:miter;stroke-miterlimit:10;"/><path d="M1116.055,329.616 C1112.741,342.038 1107.448,356.421 1099.171,367.488 C1094.209,374.123 1091.869,377.013 1085.256,382.346" style="stroke:#F3BD62;stroke-width:1;" fill="none"/><text x="1112.171" y="363.023" fill="#F4ECDF" font-size="14" textLength="150.876">release reference sync</text></g><g class="link" data-entity-1="ent0004" data-entity-2="ent0004" id="lnk18" data-link-type="dependency"><polygon points="1140.587,422.12,1150.104,424.656,1145.525,421.334,1148.847,416.755,1140.587,422.12" fill="#F3BD62" style="stroke:#F3BD62;stroke-width:1;stroke-linejoin:miter;stroke-miterlimit:10;"/><path d="M1140.587,404.857 C1151.319,406.564 1158.171,409.441 1158.171,413.488 C1158.171,417.535 1156.257,419.627 1145.525,421.334" style="stroke:#F3BD62;stroke-width:1;" fill="none"/><text x="1160.171" y="419.023" fill="#F4ECDF" font-size="14" textLength="211.688">authored guides / UML / Pages</text></g><g class="link" data-entity-1="ent0009" data-entity-2="ent0007" id="lnk19" data-link-type="dependency"><polygon points="1121.171,273.229,1125.171,264.229,1121.171,268.229,1117.171,264.229,1121.171,273.229" fill="#F3BD62" style="stroke:#F3BD62;stroke-width:1;stroke-linejoin:miter;stroke-miterlimit:10;"/><path d="M1121.171,217.679 C1121.171,234.603 1121.171,251.293 1121.171,268.229" style="stroke:#F3BD62;stroke-width:1;" fill="none"/><text x="1123.171" y="251.023" fill="#F4ECDF" font-size="14" textLength="123.225">CI / deploy / docs</text></g><g class="link" data-entity-1="ent0006" data-entity-2="ent0003" id="lnk20" data-link-type="dependency"><polygon points="457.375,276.857,450.539,269.767,452.742,274.977,447.532,277.181,457.375,276.857" fill="#F3BD62" style="stroke:#F3BD62;stroke-width:1;stroke-linejoin:miter;stroke-miterlimit:10;"/><path d="M297.214,217.657 C305.136,231.2 316.557,246.554 331.171,255.488 C376.06,282.929 398.098,257.343 448.171,273.488 C451.218,274.471 449.671,273.732 452.742,274.977" style="stroke:#F3BD62;stroke-width:1;stroke-dasharray:7,7;" fill="none"/><text x="333.171" y="251.023" fill="#F4ECDF" font-size="14" textLength="114.194">systemd runtime</text></g></g></svg>