<svg xmlns="http://www.w3.org/2000/svg" xmlns:xlink="http://www.w3.org/1999/xlink" version="1.1" data-diagram-type="STATE" style="width:1414px;height:713px;background:#17130D;" width="1414px" height="713px" viewBox="0 0 1414 713" zoomAndPan="magnify" preserveAspectRatio="none" contentStyleType="text/css"><?plantuml 1.2026.8?><defs/><g font-family="sans-serif" lengthAdjust="spacing"><rect x="0" y="0" width="1414" height="713" fill="#17130D" style="stroke:none;"/><g class="title" data-source-line="70"><text x="595.755" y="23.535" fill="#F4ECDF" font-size="14" textLength="215.489" font-weight="700">KubeQuest - session lifecycle</text></g><g class="entity" data-qualified-name="Ready" id="ent0001" data-source-line="83"><path d="M18.5,49.488 L538.5,49.488 A12.5,12.5 0 0 1 551,61.988 L551,75.977 L6,75.977 L6,61.988 A12.5,12.5 0 0 1 18.5,49.488" fill="#2D2417"/><path d="M6,75.977 L551,75.977 L551,139.477 A12.5,12.5 0 0 1 538.5,151.977 L18.5,151.977 A12.5,12.5 0 0 1 6,139.477 L6,75.977" fill="#2D2417"/><rect x="6" y="49.488" width="545" height="102.488" fill="none" style="stroke:#F3BD62;stroke-width:0.5;" rx="12.5" ry="12.5"/><line x1="6" y1="75.977" x2="551" y2="75.977" style="stroke:#F3BD62;stroke-width:0.5;"/><text x="258.245" y="68.023" fill="#F4ECDF" font-size="14" textLength="40.51">Ready</text><g class="entity" data-qualified-name="Ready.Locked" id="ent0002" data-source-line="84"><rect x="12" y="86.977" width="190.297" height="50" fill="#2D2417" style="stroke:#F3BD62;stroke-width:0.5;" rx="12.5" ry="12.5"/><line x1="12" y1="113.465" x2="202.297" y2="113.465" style="stroke:#F3BD62;stroke-width:0.5;"/><text x="22" y="105.512" fill="#F4ECDF" font-size="14" textLength="170.297">Timed: assistance locked</text></g><g class="entity" data-qualified-name="Ready.Help" id="ent0003" data-source-line="85"><rect x="220" y="86.977" width="311.956" height="50" fill="#2D2417" style="stroke:#F3BD62;stroke-width:0.5;" rx="12.5" ry="12.5"/><line x1="220" y1="113.465" x2="531.956" y2="113.465" style="stroke:#F3BD62;stroke-width:0.5;"/><text x="230" y="105.512" fill="#F4ECDF" font-size="14" textLength="291.956">Guided / independent: assistance available</text></g></g><g class="start_entity" data-qualified-name=".start." id="ent0004" data-source-line="71"><ellipse cx="962.5" cy="336.488" rx="10" ry="10" fill="#F3BD62" style="stroke:#222;stroke-width:1;"/></g><g class="entity" data-qualified-name="Idle" id="ent0005" data-source-line="71"><rect x="937.5" y="419.488" width="50" height="50" fill="#2D2417" style="stroke:#F3BD62;stroke-width:0.5;" rx="12.5" ry="12.5"/><line x1="937.5" y1="445.977" x2="987.5" y2="445.977" style="stroke:#F3BD62;stroke-width:0.5;"/><text x="950.154" y="438.023" fill="#F4ECDF" font-size="14" textLength="24.691">Idle</text></g><g class="entity" data-qualified-name="Starting" id="ent0007" data-source-line="72"><rect x="650" y="541.488" width="72.938" height="50" fill="#2D2417" style="stroke:#F3BD62;stroke-width:0.5;" rx="12.5" ry="12.5"/><line x1="650" y1="567.977" x2="722.938" y2="567.977" style="stroke:#F3BD62;stroke-width:0.5;"/><text x="660" y="560.023" fill="#F4ECDF" font-size="14" textLength="52.938">Starting</text></g><g class="entity" data-qualified-name="Error" id="ent0010" data-source-line="74"><rect x="384" y="647.488" width="53.373" height="50" fill="#2D2417" style="stroke:#F3BD62;stroke-width:0.5;" rx="12.5" ry="12.5"/><line x1="384" y1="673.977" x2="437.373" y2="673.977" style="stroke:#F3BD62;stroke-width:0.5;"/><text x="394" y="666.023" fill="#F4ECDF" font-size="14" textLength="33.373">Error</text></g><g class="entity" data-qualified-name="Submitted" id="ent0013" data-source-line="76"><rect x="234" y="207.488" width="89.241" height="50" fill="#2D2417" style="stroke:#F3BD62;stroke-width:0.5;" rx="12.5" ry="12.5"/><line x1="234" y1="233.977" x2="323.241" y2="233.977" style="stroke:#F3BD62;stroke-width:0.5;"/><text x="244" y="226.023" fill="#F4ECDF" font-size="14" textLength="69.241">Submitted</text></g><g class="entity" data-qualified-name="Stopping" id="ent0015" data-source-line="77"><rect x="268.5" y="313.488" width="80.464" height="50" fill="#2D2417" style="stroke:#F3BD62;stroke-width:0.5;" rx="12.5" ry="12.5"/><line x1="268.5" y1="339.977" x2="348.964" y2="339.977" style="stroke:#F3BD62;stroke-width:0.5;"/><text x="278.5" y="332.023" fill="#F4ECDF" font-size="14" textLength="60.464">Stopping</text></g><g class="entity" data-qualified-name="GMN22" id="ent0023" data-source-line="88"><path d="M341,210.988 L341,228.488 L323.391,232.488 L341,236.488 L341,253.965 A0,0 0 0 0 341,253.965 L658.064,253.965 A0,0 0 0 0 658.064,253.965 L658.064,220.988 L648.064,210.988 L341,210.988 A0,0 0 0 0 341,210.988" style="stroke:#BB9658;stroke-width:0.5;" fill="#3B2E1A"/><path d="M648.064,210.988 L648.064,220.988 L658.064,220.988 L648.064,210.988" style="stroke:#BB9658;stroke-width:0.5;" fill="#3B2E1A"/><text x="347" y="229.523" fill="#F4ECDF" font-size="14" textLength="296.064">Timed assistance unlocks after submission.</text><text x="347" y="246.012" fill="#F4ECDF" font-size="14" textLength="234.261">Recorded results remain in SQLite.</text></g><g class="entity" data-qualified-name="GMN25" id="ent0026" data-source-line="92"><path d="M1027,544.988 L1027,587.965 A0,0 0 0 0 1027,587.965 L1397.836,587.965 A0,0 0 0 0 1397.836,587.965 L1397.836,554.988 L1387.836,544.988 L1218.772,544.988 L987.62,446.436 L1210.772,544.988 L1027,544.988 A0,0 0 0 0 1027,544.988" style="stroke:#BB9658;stroke-width:0.5;" fill="#3B2E1A"/><path d="M1387.836,544.988 L1387.836,554.988 L1397.836,554.988 L1387.836,544.988" style="stroke:#BB9658;stroke-width:0.5;" fill="#3B2E1A"/><text x="1033" y="563.523" fill="#F4ECDF" font-size="14" textLength="349.836">On process startup, orphaned VM state is removed.</text><text x="1033" y="580.012" fill="#F4ECDF" font-size="14" textLength="289.7">Unexpected restart discards the active lab.</text></g><g class="link" data-entity-1="ent0004" data-entity-2="ent0005" id="lnk6" data-link-type="dependency"><polygon points="962.5,419.113,966.5,410.113,962.5,414.113,958.5,410.113,962.5,419.113" fill="#F3BD62" style="stroke:#F3BD62;stroke-width:1;stroke-linejoin:miter;stroke-miterlimit:10;"/><path d="M962.5,350.618 C962.5,366.862 962.5,392.481 962.5,414.113" style="stroke:#F3BD62;stroke-width:1;" fill="none"/></g><g class="link" data-entity-1="ent0005" data-entity-2="ent0007" id="lnk8" data-link-type="dependency"><polygon points="723.236,565.309,732.305,569.151,728.235,565.222,732.165,561.152,723.236,565.309" fill="#F3BD62" style="stroke:#F3BD62;stroke-width:1;stroke-linejoin:miter;stroke-miterlimit:10;"/><path d="M968.503,469.613 C971.223,486.761 971.403,509.197 958.5,523.488 C927.76,557.534 795.129,564.049 728.235,565.222" style="stroke:#F3BD62;stroke-width:1;" fill="none"/><text x="1014.122" y="503.023" fill="#F4ECDF" font-size="14" textLength="128.365">authenticated start</text><text x="971.5" y="519.512" fill="#F4ECDF" font-size="14" textLength="213.609">valid mission / no maintenance</text></g><g class="link" data-entity-1="ent0007" data-entity-2="ent0001" id="lnk9" data-link-type="dependency"><polygon points="551.209,146.831,558.848,153.047,556.034,148.14,560.942,145.326,551.209,146.831" fill="#F3BD62" style="stroke:#F3BD62;stroke-width:1;stroke-linejoin:miter;stroke-miterlimit:10;"/><path d="M686.5,541.126 C686.5,516.882 686.5,478.613 686.5,445.488 C686.5,231.488 686.5,231.488 686.5,231.488 C686.5,194.782 630.617,168.359 556.034,148.14" style="stroke:#F3BD62;stroke-width:1;" fill="none"/><text x="688.5" y="344.023" fill="#F4ECDF" font-size="14" textLength="225.518">guest and mission setup succeed</text></g><g class="link" data-entity-1="ent0007" data-entity-2="ent0010" id="lnk11" data-link-type="dependency"><polygon points="437.341,661.374,447.173,661.944,442.019,659.611,444.352,654.458,437.341,661.374" fill="#F3BD62" style="stroke:#F3BD62;stroke-width:1;stroke-linejoin:miter;stroke-miterlimit:10;"/><path d="M649.849,581.299 C593.541,602.516 491.74,640.876 442.019,659.611" style="stroke:#F3BD62;stroke-width:1;" fill="none"/><text x="574.5" y="625.023" fill="#F4ECDF" font-size="14" textLength="70.212">setup fails</text></g><g class="link" data-entity-1="ent0001" data-entity-2="ent0001" id="lnk12" data-link-type="dependency"><polygon points="551.214,109.257,560.826,111.403,556.116,108.27,559.248,103.56,551.214,109.257" fill="#F3BD62" style="stroke:#F3BD62;stroke-width:1;stroke-linejoin:miter;stroke-miterlimit:10;"/><path d="M551.214,91.72 C562.472,93.985 569,96.908 569,100.488 C569,104.068 567.374,106.005 556.116,108.27" style="stroke:#F3BD62;stroke-width:1;" fill="none"/><text x="571" y="98.023" fill="#F4ECDF" font-size="14" textLength="236.236">terminal, apply, grade or keepalive</text><text x="595.394" y="114.512" fill="#F4ECDF" font-size="14" textLength="187.448">refreshes 30-minute expiry</text></g><g class="link" data-entity-1="ent0001" data-entity-2="ent0013" id="lnk14" data-link-type="dependency"><polygon points="278.5,207.467,282.5,198.467,278.5,202.467,274.5,198.467,278.5,207.467" fill="#F3BD62" style="stroke:#F3BD62;stroke-width:1;stroke-linejoin:miter;stroke-miterlimit:10;"/><path d="M278.5,151.75 C278.5,170.898 278.5,186.848 278.5,202.467" style="stroke:#F3BD62;stroke-width:1;" fill="none"/><text x="280.5" y="185.023" fill="#F4ECDF" font-size="14" textLength="164.172">timed attempt is graded</text></g><g class="link" data-entity-1="ent0001" data-entity-2="ent0015" id="lnk16" data-link-type="dependency"><polygon points="268.463,338.342,259.547,334.158,263.464,338.239,259.383,342.156,268.463,338.342" fill="#F3BD62" style="stroke:#F3BD62;stroke-width:1;stroke-linejoin:miter;stroke-miterlimit:10;"/><path d="M118.743,151.575 C62.899,177.786 21.286,213.62 53.5,257.488 C103.207,325.179 205.099,337.039 263.464,338.239" style="stroke:#F3BD62;stroke-width:1;" fill="none"/><text x="55.5" y="238.023" fill="#F4ECDF" font-size="14" textLength="167.31">stop / idle expiry / reset</text></g><g class="link" data-entity-1="ent0013" data-entity-2="ent0015" id="lnk17" data-link-type="dependency"><polygon points="301.476,313.138,302.825,303.382,300.09,308.334,295.138,305.599,301.476,313.138" fill="#F3BD62" style="stroke:#F3BD62;stroke-width:1;stroke-linejoin:miter;stroke-miterlimit:10;"/><path d="M285.458,257.609 C290.27,274.291 295.264,291.603 300.09,308.334" style="stroke:#F3BD62;stroke-width:1;" fill="none"/><text x="298.5" y="291.023" fill="#F4ECDF" font-size="14" textLength="138.175">stop / expiry / reset</text></g><g class="link" data-entity-1="ent0010" data-entity-2="ent0015" id="lnk18" data-link-type="dependency"><polygon points="315.918,363.632,314.737,373.41,317.386,368.412,322.384,371.061,315.918,363.632" fill="#F3BD62" style="stroke:#F3BD62;stroke-width:1;stroke-linejoin:miter;stroke-miterlimit:10;"/><path d="M403.11,647.435 C384.299,586.205 336.228,429.74 317.386,368.412" style="stroke:#F3BD62;stroke-width:1;" fill="none"/><text x="366.5" y="511.023" fill="#F4ECDF" font-size="14" textLength="79.687">reset / stop</text></g><g class="link" data-entity-1="ent0007" data-entity-2="ent0015" id="lnk19" data-link-type="dependency"><polygon points="335.807,363.618,340.023,372.519,339.598,366.878,345.239,366.454,335.807,363.618" fill="#F3BD62" style="stroke:#F3BD62;stroke-width:1;stroke-linejoin:miter;stroke-miterlimit:10;"/><path d="M649.748,551.546 C606.99,534.667 534.928,504.158 477.5,469.488 C424.262,437.348 371.907,394.666 339.598,366.878" style="stroke:#F3BD62;stroke-width:1;" fill="none"/><text x="479.5" y="450.023" fill="#F4ECDF" font-size="14" textLength="191.974">stop / application shutdown</text></g><g class="link" data-entity-1="ent0015" data-entity-2="ent0005" id="lnk20" data-link-type="dependency"><polygon points="937.46,439.506,929.2,434.143,932.522,438.721,927.944,442.043,937.46,439.506" fill="#F3BD62" style="stroke:#F3BD62;stroke-width:1;stroke-linejoin:miter;stroke-miterlimit:10;"/><path d="M348.917,345.915 C471.731,365.446 833.249,422.935 932.522,438.721" style="stroke:#F3BD62;stroke-width:1;" fill="none"/><text x="695.5" y="397.023" fill="#F4ECDF" font-size="14" textLength="228.211">terminate VM and remove overlay</text></g><g class="link" data-entity-1="ent0005" data-entity-2="ent0007" id="lnk21" data-link-type="dependency"><polygon points="692.992,541.185,699.351,533.664,694.392,536.385,691.671,531.425,692.992,541.185" fill="#F3BD62" style="stroke:#F3BD62;stroke-width:1;stroke-linejoin:miter;stroke-miterlimit:10;"/><path d="M937.147,446.697 C881.309,449.841 750.015,460.031 716.5,487.488 C707.914,494.522 700.275,516.209 694.392,536.385" style="stroke:#F3BD62;stroke-width:1;" fill="none"/><text x="718.5" y="511.023" fill="#F4ECDF" font-size="14" textLength="234.698">reset continues with same mission</text></g></g></svg>